<svg xmlns="http://www.w3.org/2000/svg" width="19.488" height="23" viewBox="0 0 19.488 23"><defs><style>.a{fill:#bd8951;}</style></defs><g transform="translate(0)"><path class="a" d="M-247.651,448.115h-19.4c-.021-.025-.053-.045-.053-.065,0-1.791-.212-3.6.472-5.331a8.071,8.071,0,0,1,4.681-4.7l.258-.1a2.337,2.337,0,0,1,2.583-3.1c.079-.9.159-1.8.236-2.694.114-1.34.208-2.683.343-4.021a2.4,2.4,0,0,1,2.4-2.119c1.772-.01,3.543,0,5.315,0h.492l.044-.869h1.722V428.6h-1.732V427.8c-.147-.014-.263-.034-.38-.035q-2.637,0-5.274,0c-.522,0-.534.026-.478.531.229,2.06.46,4.119.676,6.18.028.268.092.406.388.377a2.235,2.235,0,0,1,2.276,3,19.86,19.86,0,0,1,1.9,1.046,7.763,7.763,0,0,1,3.526,6.5C-247.634,446.282-247.651,447.174-247.651,448.115Zm-1.76-1.784c0-.348.008-.662,0-.975a6.128,6.128,0,0,0-5.559-6.022,44.649,44.649,0,0,0-4.65-.036,5.373,5.373,0,0,0-2.433.695,6.247,6.247,0,0,0-3.261,6.338Zm-7.993-8.826h2.1c.308,0,.561-.093.558-.453s-.256-.44-.566-.44q-2.079,0-4.157,0c-.313,0-.56.09-.558.448s.26.444.566.444Z" transform="translate(267.132 -425.115)"/><path class="a" d="M-216.953,521.82a1.749,1.749,0,0,1,1.767,1.741,1.777,1.777,0,0,1-1.764,1.8,1.776,1.776,0,0,1-1.767-1.794A1.748,1.748,0,0,1-216.953,521.82Z" transform="translate(226.696 -505.882)"/></g></svg>