<svg xmlns="http://www.w3.org/2000/svg" width="25.518" height="25.518" viewBox="0 0 25.518 25.518"><defs><style>.a{fill:#bd8951;}</style></defs><g transform="translate(17.008) rotate(45)"><path class="a" d="M6.006,24.039q-2.495,0-4.989,0c-.687,0-1-.3-1-.99,0-3.605-.031-7.211.011-10.816A5.469,5.469,0,0,1,2.506,7.894a.693.693,0,0,1,.166-.109c.656-.247.8-.716.778-1.4C3.4,4.622,3.432,2.851,3.432,1.082,3.432.3,3.732,0,4.517,0Q6.053,0,7.59,0a.908.908,0,0,1,1,1.021C8.6,2.965,8.6,4.907,8.586,6.85a.722.722,0,0,0,.4.723,5.9,5.9,0,0,1,3.042,5.376q-.03,4.969.007,9.938a1.048,1.048,0,0,1-1.159,1.165C9.253,24.009,7.63,24.039,6.006,24.039ZM6.849,5.173c-.489,0-.928.014-1.364-.005-.276-.012-.336.1-.33.352.014.638-.008,1.276.008,1.914A1.229,1.229,0,0,1,4.34,8.656,5.879,5.879,0,0,0,2.852,9.693a4.675,4.675,0,0,0-1.146,3.768c.009.246.166.261.356.261q3.949,0,7.9,0c.238,0,.341-.071.327-.319-.017-.305,0-.612-.013-.917A4.146,4.146,0,0,0,7.621,8.622a1.148,1.148,0,0,1-.776-1.17C6.862,6.71,6.849,5.968,6.849,5.173Zm3.434,13.672c0-1.032-.01-2.014.006-3,0-.3-.1-.393-.39-.393q-3.889.01-7.777,0c-.305,0-.428.1-.423.415.014.851.019,1.7,0,2.552-.009.35.1.453.452.451,2.579-.014,5.158-.007,7.737-.008C10,18.866,10.119,18.854,10.284,18.845Zm0,1.815a.636.636,0,0,0-.105-.046Q6.089,20.607,2,20.6c-.236,0-.3.112-.295.319a9.064,9.064,0,0,1,0,.917c-.031.377.1.51.49.506,1.782-.019,3.565-.008,5.348-.008.8,0,1.6.009,2.394-.009.119,0,.331-.126.336-.2C10.3,21.633,10.284,21.143,10.284,20.66ZM6.819,3.438V1.772L5.485,1.707c-.013,0-.032-.005-.039,0-.1.091-.267.178-.275.278a8.079,8.079,0,0,0,0,1.191.356.356,0,0,0,.241.249C5.872,3.451,6.335,3.438,6.819,3.438Z" transform="translate(0 0)"/></g></svg>