<svg xmlns="http://www.w3.org/2000/svg" width="22.205" height="20.519" viewBox="0 0 22.205 20.519"><defs><style>.a{fill:#bd8951;}</style></defs><g transform="translate(0)"><g transform="translate(0)"><path class="a" d="M-468.6,608.551c2.977,0,5.955.036,8.932-.013a2.724,2.724,0,0,1,2.916,2.909c-.042,2.077-.006,4.156-.016,6.234a1.642,1.642,0,0,1-.133.687.748.748,0,0,1-.865.412.777.777,0,0,1-.68-.677,2.915,2.915,0,0,1-.026-.475q0-3.117,0-6.234a1.107,1.107,0,0,0-1.537-1.137.333.333,0,0,0-.169.217,1.432,1.432,0,0,0-.009.355q0,7.7,0,15.408a2.593,2.593,0,0,1-2.784,2.813q-4.9.012-9.805,0a2.627,2.627,0,0,1-2.788-2.826c0-3.084-.061-6.17.022-9.252A7.9,7.9,0,0,0-477,612.25c-.476-.713-1.035-1.369-1.553-2.053a2.178,2.178,0,0,1-.355-.518.833.833,0,0,1,.737-1.116c.158-.015.317-.011.476-.011Zm-7.658,1.72c.414.639.8,1.2,1.153,1.788a8.474,8.474,0,0,1,1.286,4.474c-.023,3.216-.007,6.433-.007,9.649,0,.891.267,1.164,1.153,1.164q4.783,0,9.567,0c.931,0,1.218-.311,1.255-1.231.017-.423-.13-.509-.518-.5-.961.026-1.923.009-2.907.009v-1.673h.414c.847,0,1.694-.018,2.54.008.377.011.5-.124.465-.482a4.111,4.111,0,0,1,0-.793c.042-.4-.131-.488-.5-.483-1.429.018-2.858,0-4.287.013-.286,0-.415-.071-.4-.375a7.847,7.847,0,0,0,0-.953c-.019-.3.1-.382.393-.378,1.191.014,2.382.011,3.573,0,.38,0,.916.1,1.1-.1.205-.227.077-.744.121-1.131s-.1-.531-.507-.519c-.961.028-1.924.009-2.913.009v-1.645c.1-.01.2-.025.285-.025.913,0,1.826-.009,2.739,0,.284,0,.417-.077.4-.382a5.564,5.564,0,0,1,0-.873c.031-.359-.086-.479-.462-.473-1.429.022-2.858,0-4.287.014-.322,0-.461-.1-.436-.431a5.369,5.369,0,0,0,0-.873c-.032-.357.113-.45.455-.446,1.442.016,2.885,0,4.327.013.308,0,.414-.085.406-.4-.02-.833-.026-1.668,0-2.5.013-.4-.109-.522-.514-.521-4.486.013-8.971.008-13.457.009C-475.953,610.244-476.08,610.259-476.26,610.271Z" transform="translate(478.959 -608.538)"/></g></g></svg>