<svg xmlns="http://www.w3.org/2000/svg" width="22.953" height="20.519" viewBox="0 0 22.953 20.519"><defs><style>.a{fill:#bd8951;}</style></defs><g transform="translate(0 0)"><g transform="translate(0 0)"><path class="a" d="M-762.256,279.733H-739.3c-.106.669-.2,1.307-.307,1.942q-.9,5.435-1.809,10.869c-.409,2.447-.828,4.892-1.23,7.339-.043.259-.148.367-.4.356-.111,0-.223,0-.334,0-4.951,0-9.9-.006-14.854.011-.446,0-.637-.1-.711-.568-.476-3-.98-5.994-1.479-8.99q-.591-3.553-1.189-7.1C-761.827,282.322-762.036,281.055-762.256,279.733Zm2.427,2.062c.185,1.09.365,2.122.536,3.155q1.067,6.424,2.126,12.849a.393.393,0,0,0,.474.389c.525-.016,1.051,0,1.576,0h10.175c.258,0,.509.038.563-.338.123-.866.273-1.727.412-2.591.059-.367.12-.733.19-1.165h-11.687c-.219,0-.455.057-.5-.278-.077-.564-.173-1.126-.272-1.757h.507c3.917,0,7.834-.005,11.751.008.406,0,.58-.106.647-.531.334-2.121.7-4.236,1.057-6.353.185-1.111.361-2.223.548-3.383Z" transform="translate(762.256 -279.733)"/></g></g></svg>