<svg xmlns="http://www.w3.org/2000/svg" width="18.478" height="20.519" viewBox="0 0 18.478 20.519"><defs><style>.a{fill:#bd8951;}</style></defs><g transform="translate(0 0)"><path class="a" d="M236.115,347.668v-2.035h2.048v2.015h8.2v-2.011h2.06v2.031c.341,0,.648,0,.954,0a2.051,2.051,0,0,1,2.133,2.113q.007,7.127,0,14.255a2.043,2.043,0,0,1-2.1,2.111q-7.143.008-14.285,0a2.039,2.039,0,0,1-2.087-2.085q-.008-7.145,0-14.291a2.048,2.048,0,0,1,2.107-2.1C235.45,347.665,235.759,347.668,236.115,347.668Zm-1,16.4h14.316V353.857H235.11Zm0-12.319h14.31v-2H235.11Z" transform="translate(-233.032 -345.633)"/><path class="a" d="M282.822,445.755l-2.969,2.967-2.958-2.967Z" transform="translate(-270.596 -431.375)"/><path class="a" d="M280.264,410.75l2.908,2.915h-5.824Z" transform="translate(-270.984 -401.398)"/></g></svg>