<svg xmlns="http://www.w3.org/2000/svg" width="17.406" height="20.519" viewBox="0 0 17.406 20.519"><defs><style>.a{fill:#bd8951;}</style></defs><g transform="translate(0 0)"><path class="a" d="M-591.713,349.36a8.729,8.729,0,0,1,8.67,7.926,8.329,8.329,0,0,1-2.037,6.416c-1.573,1.817-3.211,3.578-4.858,5.33a2.259,2.259,0,0,1-3.538-.013c-1.676-1.789-3.381-3.559-4.943-5.445a8.68,8.68,0,0,1,5.322-14.083C-592.64,349.416-592.174,349.4-591.713,349.36Zm-7.149,9.413a6.414,6.414,0,0,0,1.655,3.868c1.569,1.79,3.19,3.534,4.8,5.286.511.555.9.556,1.412,0,1.62-1.761,3.262-3.5,4.82-5.317a6.749,6.749,0,0,0,1.519-5.812,7.084,7.084,0,0,0-7.493-5.862C-596.032,351.222-598.855,354.275-598.862,358.773Z" transform="translate(600.409 -349.36)"/><path class="a" d="M-554.966,392.416a2.488,2.488,0,0,1,2.562,2.544,2.489,2.489,0,0,1-2.583,2.559,2.489,2.489,0,0,1-2.544-2.562A2.488,2.488,0,0,1-554.966,392.416Zm-.019,1.525a.951.951,0,0,0-1,1.052.946.946,0,0,0,1.013,1,.952.952,0,0,0,1.015-1.035A.95.95,0,0,0-554.985,393.941Z" transform="translate(563.675 -386.245)"/><path class="a" d="M-577.6,388.721a.789.789,0,0,1,.674,1.133,9.034,9.034,0,0,0-.471,1.7,3.545,3.545,0,0,0,.414,2.1.79.79,0,0,1-.289,1.158.792.792,0,0,1-1.09-.495,5.559,5.559,0,0,1,.018-5.081A.821.821,0,0,1-577.6,388.721Z" transform="translate(582.041 -383.08)"/><path class="a" d="M-514.522,391.809a4.047,4.047,0,0,0-.436-1.884.786.786,0,0,1,.28-1.134.784.784,0,0,1,1.1.469,5.536,5.536,0,0,1-.014,5.081.781.781,0,0,1-1.076.457.782.782,0,0,1-.3-1.128A4.007,4.007,0,0,0-514.522,391.809Z" transform="translate(527.315 -383.062)"/></g></svg>