<svg xmlns="http://www.w3.org/2000/svg" width="91.624" height="23.415" viewBox="0 0 91.624 23.415"><defs><style>.a{fill:#139ad6;}.b{fill:#263b80;}.c{fill:#232c65;}</style></defs><g transform="translate(0 -187.6)"><path class="a" d="M354.908,221.2h-4.945a.966.966,0,0,0-.727.582l-2.036,12.8a.386.386,0,0,0,.436.436h2.618a.386.386,0,0,0,.436-.436l.582-3.636a.665.665,0,0,1,.727-.582h1.6q5.018,0,5.672-4.8a3.812,3.812,0,0,0-.582-3.2,5.866,5.866,0,0,0-3.781-1.163m.582,4.8c-.291,1.745-1.6,1.745-2.909,1.745h-.873l.582-3.345c0-.145.145-.291.436-.291h.291c.873,0,1.745,0,2.182.582.291.145.291.582.291,1.309" transform="translate(-284.081 -27.492)"/><g transform="translate(27.487 193.708)"><path class="b" d="M158.908,221.2h-4.945a.966.966,0,0,0-.727.582l-2.036,12.8a.386.386,0,0,0,.436.436h2.327a.966.966,0,0,0,.727-.582l.582-3.49a.665.665,0,0,1,.727-.582h1.6q5.018,0,5.672-4.8a3.812,3.812,0,0,0-.582-3.2,5.59,5.59,0,0,0-3.781-1.163m.582,4.8c-.291,1.745-1.6,1.745-2.909,1.745h-.727l.582-3.345c0-.145.145-.291.436-.291h.291c.873,0,1.745,0,2.182.582A1.558,1.558,0,0,1,159.49,226" transform="translate(-151.2 -221.2)"/><path class="b" d="M225.189,245.491h-2.327c-.145,0-.436.145-.436.291l-.145.727-.145-.291a3.421,3.421,0,0,0-2.763-1.018,5.588,5.588,0,0,0-5.381,4.8,4.335,4.335,0,0,0,.873,3.636,3.665,3.665,0,0,0,3.054,1.163,4.649,4.649,0,0,0,3.345-1.309l-.145.727a.386.386,0,0,0,.436.436h2.182a.966.966,0,0,0,.727-.582l1.309-8.144c-.145-.145-.436-.436-.582-.436m-3.345,4.654a2.813,2.813,0,0,1-2.763,2.327,2.326,2.326,0,0,1-1.6-.582,3.1,3.1,0,0,1-.436-1.745,2.594,2.594,0,0,1,4.218-1.745,2.539,2.539,0,0,1,.582,1.745" transform="translate(-202.501 -240.837)"/></g><path class="a" d="M420.389,245.491h-2.327c-.145,0-.436.145-.436.291l-.145.727-.145-.291a3.421,3.421,0,0,0-2.763-1.018,5.589,5.589,0,0,0-5.381,4.8,4.335,4.335,0,0,0,.873,3.636,3.665,3.665,0,0,0,3.054,1.163,4.649,4.649,0,0,0,3.345-1.309l-.145.727a.386.386,0,0,0,.436.436h2.182a.966.966,0,0,0,.727-.582l1.309-8.144c-.145-.145-.291-.436-.582-.436m-3.345,4.654a2.813,2.813,0,0,1-2.763,2.327,2.326,2.326,0,0,1-1.6-.582,3.1,3.1,0,0,1-.436-1.745,2.594,2.594,0,0,1,4.218-1.745,1.669,1.669,0,0,1,.582,1.745" transform="translate(-334.727 -47.129)"/><path class="b" d="M295.2,246.8h-2.472a.756.756,0,0,0-.582.291l-3.2,4.945-1.454-4.654a.672.672,0,0,0-.727-.436h-2.327c-.291,0-.436.291-.436.582l2.618,7.708-2.472,3.49c-.145.291,0,.727.291.727h2.327a.756.756,0,0,0,.582-.291l8-11.489c.436-.436.145-.873-.145-.873" transform="translate(-232.37 -48.438)"/><path class="a" d="M477.236,222.034,475.2,235.123a.386.386,0,0,0,.436.436h2.036a.966.966,0,0,0,.727-.582l2.036-12.8a.386.386,0,0,0-.436-.436h-2.327c-.145-.145-.291,0-.436.291" transform="translate(-388.811 -27.889)"/><path class="b" d="M16.725,189.345c-1.018-1.163-2.909-1.745-5.527-1.745H3.927a1.248,1.248,0,0,0-1.018.873L0,207.525a.665.665,0,0,0,.582.727H5.09l1.163-7.126v.291a1.248,1.248,0,0,1,1.018-.873H9.453c4.218,0,7.417-1.745,8.435-6.545v-.436h0a5.079,5.079,0,0,0-1.163-4.218" transform="translate(0 0)"/><path class="a" d="M38.689,220.4h0v.436c-1.018,4.945-4.218,6.545-8.435,6.545H28.072a1.248,1.248,0,0,0-1.018.873L25.6,237.125a.533.533,0,0,0,.582.582h3.781a.814.814,0,0,0,.873-.727v-.145l.727-4.509v-.291a.814.814,0,0,1,.873-.727h.582c3.636,0,6.545-1.454,7.272-5.817a5.347,5.347,0,0,0-.727-4.363,1.49,1.49,0,0,0-.873-.727" transform="translate(-20.946 -26.837)"/><path class="c" d="M44.871,216.036c-.145,0-.291-.145-.436-.145a.534.534,0,0,1-.436-.145,7.683,7.683,0,0,0-1.891-.145H36.436a.534.534,0,0,0-.436.145.8.8,0,0,0-.436.727L34.4,224.035v.291a1.248,1.248,0,0,1,1.018-.873H37.6c4.218,0,7.417-1.745,8.435-6.545a.534.534,0,0,1,.145-.436c-.291-.145-.436-.291-.727-.291-.436-.145-.436-.145-.582-.145" transform="translate(-28.146 -22.91)"/></g></svg>