<svg xmlns="http://www.w3.org/2000/svg" width="18.444" height="20.519" viewBox="0 0 18.444 20.519"><defs><style>.a{fill:#bd8951;}</style></defs><g transform="translate(0 0)"><g transform="translate(0 0)"><path class="a" d="M-140.2,251.483a4.154,4.154,0,0,1,4.024-4.107,3.974,3.974,0,0,1,2.945,1.163,4.151,4.151,0,0,1,1.26,2.943h1.8c.846,0,1.171.267,1.29,1.1q.737,5.13,1.461,10.261c.176,1.238.35,2.477.536,3.714A1.048,1.048,0,0,1-128,267.892q-8.083,0-16.166,0a1.05,1.05,0,0,1-1.124-1.326q.675-4.669,1.336-9.34c.228-1.592.452-3.185.691-4.775a1.009,1.009,0,0,1,1.148-.968C-141.482,251.479-140.853,251.483-140.2,251.483Zm11.116,14.333a.868.868,0,0,0,.006-.117c-.56-3.916-1.127-7.83-1.672-11.748-.049-.349-.156-.439-.5-.437-2.623.016-5.246.009-7.869.009-.656,0-1.311,0-1.967,0-.187,0-.279.046-.3.253-.028.332-.09.661-.137.991q-.628,4.387-1.256,8.775c-.107.751-.212,1.5-.321,2.277Zm-9.019-14.361h4.041a1.993,1.993,0,0,0-2.021-2.03A1.992,1.992,0,0,0-138.1,251.455Z" transform="translate(145.305 -247.375)"/></g></g></svg>