<svg xmlns="http://www.w3.org/2000/svg" width="18.785" height="20.519" viewBox="0 0 18.785 20.519"><defs><style>.a{fill:#bd8951;}</style></defs><g transform="translate(0 0)"><g transform="translate(0 0)"><path class="a" d="M-245,151.422c2.077,0,4.155.012,6.232-.008a1.079,1.079,0,0,1,1.114.7,23.566,23.566,0,0,1,1.754,6.029,22.908,22.908,0,0,1,.215,5.024,23.394,23.394,0,0,1-1.928,7.972,1.192,1.192,0,0,1-1.234.784q-6.173-.021-12.345,0a1.17,1.17,0,0,1-1.212-.751A22.9,22.9,0,0,1-254,166a22.489,22.489,0,0,1-.382-5.488,23.941,23.941,0,0,1,1.928-8.254,1.236,1.236,0,0,1,1.3-.852C-249.1,151.446-247.05,151.422-245,151.422Zm-.9,15.319a.938.938,0,0,0,.037-.174q0-4.858.006-9.716c0-.233-.1-.291-.314-.29q-1.169.01-2.339,0c-.222,0-.313.062-.358.3a26.906,26.906,0,0,0-.349,6.632c.066,1.086.233,2.166.354,3.247Zm4.728.006c.12-1.121.255-2.221.351-3.324a26.341,26.341,0,0,0-.34-6.515c-.041-.251-.141-.357-.412-.35-.727.018-1.455.022-2.182,0-.328-.01-.423.087-.421.42.013,3.136.007,6.272.008,9.407,0,.115.013.23.021.363Zm1.677.02c.443,0,.827-.029,1.2.009.326.032.41-.132.461-.393a21.454,21.454,0,0,0,.446-5.987c-.1-1.156-.288-2.3-.457-3.453-.02-.136-.164-.35-.266-.36-.442-.04-.889-.017-1.385-.017A29.863,29.863,0,0,1-239.494,166.767Zm-11.05-.019a28.961,28.961,0,0,1,0-10.184,7.673,7.673,0,0,1-1.013-.008c-.462-.066-.646.146-.687.562a1.481,1.481,0,0,1-.021.157,20.832,20.832,0,0,0-.377,5.836c.089,1.218.3,2.426.456,3.636Zm2.14,1.767c.176.545.328,1.042.5,1.53a.318.318,0,0,0,.247.135c.513.013,1.027.014,1.54,0,.086,0,.239-.107.241-.168.02-.494.011-.989.011-1.5Zm2.543-13.692c0-.5.011-.986-.012-1.47,0-.074-.165-.2-.257-.2-.5-.02-1-.018-1.506,0a.361.361,0,0,0-.279.157c-.174.489-.319.988-.484,1.516Zm4.223-.006c-.171-.538-.322-1.039-.5-1.53a.325.325,0,0,0-.253-.137c-.514-.013-1.028-.015-1.541,0-.082,0-.227.115-.23.181-.02.494-.011.989-.011,1.485Zm-2.51,13.707v1.658c.624,0,1.228,0,1.831-.005a.238.238,0,0,0,.182-.119c.167-.494.319-.993.49-1.534Zm-7.464-13.686c.481,0,.862.007,1.242-.006a.278.278,0,0,0,.216-.121c.158-.5.3-1,.461-1.565-.4,0-.749-.011-1.1.009a.329.329,0,0,0-.22.181C-251.21,153.806-251.391,154.282-251.611,154.838Zm1.921,15.348c-.164-.567-.3-1.06-.456-1.549a.235.235,0,0,0-.175-.127c-.4-.011-.8-.006-1.289-.006.223.558.4,1.036.61,1.5a.368.368,0,0,0,.268.172C-250.406,170.2-250.077,170.186-249.69,170.186Zm9.339-17.04c.168.565.308,1.055.464,1.54a.261.261,0,0,0,.19.145c.4.013.806.007,1.275.007-.218-.55-.4-1.038-.61-1.518a.328.328,0,0,0-.234-.166C-239.6,153.135-239.945,153.146-240.352,153.146Zm0,17.039c.39,0,.742.005,1.095,0a.248.248,0,0,0,.19-.1c.212-.5.41-1.008.638-1.578-.477,0-.857-.009-1.237.007a.3.3,0,0,0-.227.156C-240.05,169.149-240.188,169.641-240.349,170.185Z" transform="translate(254.419 -151.408)"/></g></g></svg>