<svg xmlns="http://www.w3.org/2000/svg" width="73" height="61.085" viewBox="0 0 73 61.085"><defs><style>.a{fill:#bd8951;}</style></defs><g transform="translate(0 0)"><path class="a" d="M72.452,82.233A3.919,3.919,0,0,0,69.746,81c-.211-.033-.43-.066-.553-.1a3.4,3.4,0,0,1-2.177-1.512,2.884,2.884,0,0,1-.121-2.285,8.342,8.342,0,0,1,.395-.962,4.413,4.413,0,0,0,.469-3.685,11.329,11.329,0,0,0-2.413-3.128l-.028-.029.083-.069c.8-.668,1.626-1.36,2.455-1.98.08-.06.224-.149.363-.236a5.42,5.42,0,0,0,.95-.69,3.393,3.393,0,0,0,.963-3.314,2.685,2.685,0,0,0-2.221-1.83c-.31-.054-.671-.084-1.09-.12a11.631,11.631,0,0,1-1.954-.281,2.542,2.542,0,0,0-.47-2.482,2.076,2.076,0,0,0-1.3-.691,4.546,4.546,0,0,0-.105-.671,10.907,10.907,0,0,0-2.309-4.127c-.176-.225-.351-.45-.522-.678-.263-.35-.574-.7-.9-1.076a7.812,7.812,0,0,1-1.418-1.928,4.585,4.585,0,0,1,.018-1.71,7.119,7.119,0,0,0-.059-2.819,3.786,3.786,0,0,0-3.65-2.815h-.021c-2.336.012-3.245,1.827-3.845,3.027-.8,1.588-1.578,3.211-2.335,4.78q-.573,1.189-1.15,2.376c-.166.341-.338.772-.538,1.272a20.664,20.664,0,0,1-1.226,2.687c-.582.989-.923,1.077-.921,1.077a.808.808,0,0,1-.34-.057,5,5,0,0,1-.156-1.894A5.728,5.728,0,0,0,43.2,52.1c-.907-1.634-3.24-2.154-4.942-2.534-.288-.064-.561-.125-.768-.18a3.183,3.183,0,0,0-1.683-.158,2.33,2.33,0,0,0-1.344,1.106c-.066.095-.142.2-.233.329l-3.213,4.4c-.411.562-.8,1.169-1.209,1.811-1.052,1.645-2.139,3.346-3.485,4.051l-.409.212c-1.861.961-2.331,1.428-2.676,3.819l-.028.192c-.191,1.294-.48,3.251.708,4.455a3.03,3.03,0,0,0,2.7.773,2.96,2.96,0,0,0,.982-.328,2.179,2.179,0,0,0,.453.666,3.2,3.2,0,0,0,2.387.939,3.923,3.923,0,0,0,2.787-1.366,5.9,5.9,0,0,0,1.429-4.348A4.38,4.38,0,0,0,34.1,64.38l-.045-.083c.006-.021.015-.046.026-.077a5.579,5.579,0,0,1,2.068-2.72,4.98,4.98,0,0,1,.915,1.783,9.658,9.658,0,0,0,.764,1.706c.014.023.049.09.074.139a3.061,3.061,0,0,0,.715.968,4.711,4.711,0,0,0-.8.45A7.507,7.507,0,0,0,35.144,69.9a7.035,7.035,0,0,0-.314,1.3,3.365,3.365,0,0,1-.256.967,2.9,2.9,0,0,1-1.246,1.254,4.38,4.38,0,0,1-.755.313,1.429,1.429,0,1,0,.86,2.726,7.231,7.231,0,0,0,1.249-.522,5.506,5.506,0,0,0,2.965-4.255,4.654,4.654,0,0,1,.179-.789,4.736,4.736,0,0,1,1.652-2.019,3.975,3.975,0,0,1,.632-.306,3.068,3.068,0,0,0,2.3-2.683,5.24,5.24,0,0,0-1.331-2.816,1.466,1.466,0,0,0-1.141-.266c-.066-.166-.131-.342-.2-.516-.473-1.265-1.061-2.839-2.543-3.444a2.83,2.83,0,0,0-2.267.074c-1.927.858-3.235,3.488-3.542,4.341a2.727,2.727,0,0,0,.209,2.509,1.61,1.61,0,0,1,.234.618,3.149,3.149,0,0,1-.753,2.015,1.112,1.112,0,0,1-.733.4.374.374,0,0,1-.17-.03,2.333,2.333,0,0,0-1.251-1.575,2.573,2.573,0,0,0-2.485.233c-.077.043-.181.1-.232.122a1.283,1.283,0,0,1-.266.009,6.636,6.636,0,0,1,.093-1.991l.029-.2A6.112,6.112,0,0,1,26.3,64.2a5.919,5.919,0,0,1,.919-.526l.423-.22c2.02-1.058,3.373-3.175,4.567-5.044.386-.6.75-1.174,1.109-1.664l3.213-4.4c.057-.078.109-.15.156-.218l.067.018c.26.069.559.135.875.206.688.153,2.782.621,3.062,1.125a5.894,5.894,0,0,1,.064,1.488c-.036,1.279-.081,2.87.942,3.945a3.2,3.2,0,0,0,2.349.944h.065c2.577,0,3.913-3.343,4.8-5.562.171-.429.333-.834.453-1.08q.58-1.191,1.154-2.386c.752-1.56,1.53-3.172,2.316-4.742.6-1.2.821-1.446,1.3-1.449h0a.946.946,0,0,1,.9.735,4.975,4.975,0,0,1-.029,1.707,6.666,6.666,0,0,0,.11,2.95,9.256,9.256,0,0,0,1.987,2.915c.291.329.566.64.759.9.182.242.368.481.555.721A8.485,8.485,0,0,1,60.213,57.6a2.29,2.29,0,0,1,.046.345,2.641,2.641,0,0,0,.921,1.945,2.016,2.016,0,0,0,.85.449,2.473,2.473,0,0,0,.426,2.173c.877,1.121,2.676,1.273,4.122,1.4.3.026.593.05.783.079a.849.849,0,0,1-.191.294,4.853,4.853,0,0,1-.458.3c-.191.119-.389.241-.57.377-.89.667-1.747,1.383-2.575,2.075-.4.336-.819.684-1.227,1.017a1.429,1.429,0,0,0-.2,2.022c.342.412.737.818,1.156,1.247a9.589,9.589,0,0,1,1.834,2.26c.089.207-.244.937-.443,1.373a10.535,10.535,0,0,0-.53,1.319,5.7,5.7,0,0,0,.353,4.492,6.254,6.254,0,0,0,3.916,2.888c.139.039.282.07.426.1-.456.046-.945.066-1.426.086-.507.021-1.032.043-1.524.1s-1,.135-1.5.214a12.889,12.889,0,0,1-2.642.25,8.694,8.694,0,0,1-2.351-.747c-1.5-.619-3.191-1.32-4.837-.8a9.222,9.222,0,0,0-1.713.766c-.83.452-.936.51-1.826-.031a3.163,3.163,0,0,0-2.674-.516c-1.143.4-1.546,1.494-1.935,2.553-.043.118-.088.24-.135.365-.09.237-.209.509-.335.8-.583,1.328-1.381,3.147-.6,4.864a6.334,6.334,0,0,0,.409.745,5.522,5.522,0,0,1-1.914.583,11.734,11.734,0,0,0-1.631.4A2.84,2.84,0,0,0,40.28,95.1a3.025,3.025,0,0,0,.971,2.725,4.443,4.443,0,0,1,.536.74,1.9,1.9,0,0,1-.359,1.4,7.411,7.411,0,0,1-1.456-1.974c-.251-.421-.488-.818-.74-1.173-.132-.186-.286-.37-.435-.548a4.878,4.878,0,0,1-.489-.646,3.278,3.278,0,0,1,.01-.494,4.687,4.687,0,0,0-.039-1.223c-.364-1.853-4.735-6.465-7.425-6.886a2.349,2.349,0,0,0-2.532,1.166c-.4.733-.284,1.663.527,3.973l-.092-.086a4.166,4.166,0,0,1-.8-1.324,4.647,4.647,0,0,0-1.392-1.984,3.162,3.162,0,0,0-3.294-.068c-.147.066-.285.13-.415.191-.834.388-.984.458-1.625.281-1.9-.522-3.244-.7-4.631,1.481a1.063,1.063,0,0,1-.77.623,10.5,10.5,0,0,0-1.08.465,8.553,8.553,0,0,0-2.4,1.99l-.138.148c-.268.288-.529.606-.805.942-.685.837-1.622,1.98-2.336,1.98H9.052a8.252,8.252,0,0,1-1.087-.123A8.551,8.551,0,0,0,6,96.536a2.735,2.735,0,0,1-.469,0c-.051-.061-.127-.162-.191-.247a9.784,9.784,0,0,0-.669-.814,7.89,7.89,0,0,0-1.236-1.042,4.544,4.544,0,0,1-.57-.454,1.237,1.237,0,0,1,.079-.284,28.262,28.262,0,0,1,1.875-3.705c.264-.466.538-.947.793-1.42.4-.744.684-.942.816-.994a1.762,1.762,0,0,1,1.139.229c1.018.453,2.051.951,3.049,1.432.515.249,1.031.5,1.547.742a1.429,1.429,0,0,0,1.908-.692c.152-.328.348-.689.555-1.071a11.431,11.431,0,0,0,1.23-2.869,4.273,4.273,0,0,0,.059-1.229,1.867,1.867,0,0,1,.008-.519,3.486,3.486,0,0,1,1.344-1.444L17.474,82a38.036,38.036,0,0,1,4.434-3.047,1.429,1.429,0,0,0-1.415-2.483,40.793,40.793,0,0,0-4.777,3.277l-.2.152a5.824,5.824,0,0,0-2.335,2.888,4.163,4.163,0,0,0-.122,1.507,2.231,2.231,0,0,1,0,.441,9.046,9.046,0,0,1-.923,2.07l-.285-.137c-1.018-.491-2.071-1-3.129-1.47-2.463-1.1-4.305-.436-5.631,2.017-.241.446-.5.894-.764,1.368a30.314,30.314,0,0,0-2.061,4.1c-.895,2.352.657,3.471,1.491,4.072a5.375,5.375,0,0,1,.81.665,7.1,7.1,0,0,1,.484.593,3.033,3.033,0,0,0,3.127,1.378,5.947,5.947,0,0,1,1.338.112,10.8,10.8,0,0,0,1.461.156c2.112.051,3.568-1.727,4.632-3.026.245-.3.477-.583.683-.8l.142-.152a6.079,6.079,0,0,1,1.6-1.384,7.688,7.688,0,0,1,.806-.345,3.734,3.734,0,0,0,2.171-1.763,2.833,2.833,0,0,1,.373-.5,7.222,7.222,0,0,1,1.087.243,4.531,4.531,0,0,0,3.588-.445c.12-.056.247-.115.382-.176a2.011,2.011,0,0,1,.5-.167,5.777,5.777,0,0,1,.417.805,6.536,6.536,0,0,0,1.475,2.247c.068.062.272.263.489.477.543.536,1.363,1.346,2.114,2.018,1.158,1.037,1.989,1.694,2.961,1.383a1.457,1.457,0,0,0,.865-.755c.328-.685.18-1.072-.785-3.591-.341-.889-.937-2.446-1.274-3.53a11.629,11.629,0,0,1,2,1.567,11.516,11.516,0,0,1,2.275,2.726,3.859,3.859,0,0,1-.013.466,3.975,3.975,0,0,0,.134,1.588,5.089,5.089,0,0,0,1,1.564c.119.142.231.277.3.372.186.261.394.611.615.981a8.7,8.7,0,0,0,2.352,2.906,2.874,2.874,0,0,0,1.591.5,2.7,2.7,0,0,0,1.758-.667,4.49,4.49,0,0,0,1.175-4.806,6.294,6.294,0,0,0-.932-1.378l-.023-.028c.282-.075.613-.139.959-.206a6.92,6.92,0,0,0,3.274-1.25,2.438,2.438,0,0,0,.558-3.6,4.142,4.142,0,0,1-.266-.469c-.252-.555.229-1.653.616-2.534.135-.309.275-.628.392-.935q.075-.2.144-.388c.079-.216.176-.479.263-.683.052.028.111.061.178.1a3.985,3.985,0,0,0,4.677.1,6.522,6.522,0,0,1,1.206-.55c.655-.207,1.84.284,2.886.716a10.525,10.525,0,0,0,3.267.959,14.944,14.944,0,0,0,3.272-.281c.476-.076.926-.149,1.347-.194.4-.043.856-.062,1.339-.082a12.506,12.506,0,0,0,3.4-.46A2.907,2.907,0,0,0,72.9,84.41,2.378,2.378,0,0,0,72.452,82.233Z" transform="translate(-0.002 -41.778)"/></g></svg>