<svg xmlns="http://www.w3.org/2000/svg" width="60.998" height="60.998" viewBox="0 0 60.998 60.998"><defs><style>.a{fill:#bd8951;}</style></defs><g transform="translate(0 -0.001)"><g transform="translate(43.918 54.689)"><path class="a" d="M370.9,459.629a1.192,1.192,0,0,0-1.628-.432l-.046.026a1.191,1.191,0,1,0,1.2,2.061l.046-.026A1.191,1.191,0,0,0,370.9,459.629Z" transform="translate(-368.63 -459.036)"/></g><g transform="translate(0 0.001)"><g transform="translate(0 0)"><path class="a" d="M56.911,15.26A30.491,30.491,0,0,0,1.052,22.614a30.5,30.5,0,0,0,40.36,36.37,1.191,1.191,0,0,0-.855-2.224,27.928,27.928,0,0,1-26.876-3.694L14.749,47.5l.514-.167a3.711,3.711,0,0,0,2.38-4.67L17.266,41.5a1.315,1.315,0,0,1,0-.821,3.706,3.706,0,0,0-2.811-4.793l-2.689-.525L6.579,31.413a1.191,1.191,0,0,0-1.089-.185l-3.038.987a28.086,28.086,0,0,1,0-3.253c.12.112.2.188.246.237a1.249,1.249,0,0,0,1.164.6,17.3,17.3,0,0,0,2.135-.243C7,29.4,8,29.237,8.008,29.235A1.191,1.191,0,0,0,8.8,27.389L7.335,25.247l2.092-1.5a1.192,1.192,0,0,0,.341-.377l3.243-5.662,1.307-1.4a5.032,5.032,0,0,0,.971-5.337,5.479,5.479,0,0,0-2.17-2.556,28.073,28.073,0,0,1,17.06-6.013L28.052,5.074,20.163,7.839a1.191,1.191,0,0,0-.707.67l-2.2,5.341A1.191,1.191,0,0,0,17.385,15L20.6,19.5A11.323,11.323,0,0,0,19.157,21.3c-.235.333-.457.648-.61.825-.133.154-.267.3-.4.452a11.148,11.148,0,0,0-1.916,2.659,7.1,7.1,0,0,0,.589,7.177,6.686,6.686,0,0,0,6.313,2.709,9.276,9.276,0,0,0,1.164-.235c1.021-.253,1.345-.278,1.673.029.159.149.174.178.171.684a4.631,4.631,0,0,0,.106,1.181,3.764,3.764,0,0,0,1.007,1.645,2.67,2.67,0,0,1,.432.551,2.966,2.966,0,0,1-.145,2.464q-.046.139-.092.284c-.539,1.667.212,3.321.875,4.78.215.474.418.921.551,1.316,1.071,3.178,1.874,3.906,2.519,4.2a2.483,2.483,0,0,0,1.04.221c1.717,0,3.509-1.595,4.333-2.606A3.661,3.661,0,0,0,37.5,47.9a1.9,1.9,0,0,1,.152-.532,3.121,3.121,0,0,1,.391-.5,4.133,4.133,0,0,0,.974-1.618,2.622,2.622,0,0,1,.808-1.269c.082-.087.169-.18.263-.282,1.587-1.727,1.178-3.046.745-4.442-.364-1.175.273-1.927,1.813-3.361a12.868,12.868,0,0,0,1.892-2.037,2.572,2.572,0,0,0,.5-2.386c-.431-1-1.526-1.168-2.406-1.3a3.947,3.947,0,0,1-1.04-.243,5.632,5.632,0,0,1-1.624-2.46c-.087-.194-.173-.385-.259-.57-.155-.331-.31-.731-.473-1.155a9.994,9.994,0,0,0-1.761-3.28,7.609,7.609,0,0,0-3.419-1.519c-.42-.114-.817-.221-1.079-.318a1.19,1.19,0,0,0-.684-.042,3.091,3.091,0,0,0-1.27.526,1.48,1.48,0,0,0-.424.571,13.626,13.626,0,0,1-1.4-.855l-.023-.015a1.689,1.689,0,0,0-.106-1.147c-.665-1.408-2.875-1.3-3.31-1.26-.248.021-.561.032-.892.043-.52.018-1.1.039-1.665.1l.029-.082a3.046,3.046,0,0,1,2.86-2.012h.677a1.191,1.191,0,0,0,0-2.383H26.1a5.438,5.438,0,0,0-4.612,2.572l-1.777-2.489,1.748-4.238,7.709-2.7a1.192,1.192,0,0,0,.537-.382l3.427-4.3A28.1,28.1,0,0,1,54.848,16.451a27.8,27.8,0,0,1,2.807,6.819l-.505.45a3.182,3.182,0,0,0-1.06,2.315c0,.01,0,.019,0,.029L55.267,23.8a2.974,2.974,0,0,0-.536-.92l-1.468-1.718a2.986,2.986,0,0,0-2.273-1.048h-1.8A1.725,1.725,0,0,0,47.757,22.8l.182.273a13.2,13.2,0,0,1-3.933,2.336l-2.463-4.717V19.637a1.191,1.191,0,0,0-.369-.862l-2.218-2.117a1.193,1.193,0,0,0-.428-.262l-2-.7a1.191,1.191,0,1,0-.79,2.248l1.754.617,1.663,1.588v.835a1.192,1.192,0,0,0,.135.551l3.083,5.905A1.191,1.191,0,0,0,43.847,28l.9-.331a15.591,15.591,0,0,0,5.59-3.578,1.191,1.191,0,0,0,.149-1.5l-.063-.1h.569a.606.606,0,0,1,.462.213l1.468,1.718a.605.605,0,0,1,.109.187l1.62,4.454a1.191,1.191,0,0,0,1.962.435l.771-.771a3.719,3.719,0,0,0,.985-1.791A28.211,28.211,0,0,1,47.891,52.6a1.191,1.191,0,1,0,1.471,1.874A30.5,30.5,0,0,0,56.911,15.26ZM5.633,33.687l4.912,3.735a1.19,1.19,0,0,0,.493.221L14,38.221a1.324,1.324,0,0,1,1,1.712,3.682,3.682,0,0,0,0,2.3l.377,1.161a1.325,1.325,0,0,1-.85,1.668l-1.184.385a1.191,1.191,0,0,0-.8.909l-.953,4.974A28.424,28.424,0,0,1,6.162,44.56,27.961,27.961,0,0,1,2.7,34.639Zm6.943-19-1.4,1.5a1.2,1.2,0,0,0-.163.221L7.83,21.964,5,23.986a1.191,1.191,0,0,0-.291,1.64l1.058,1.552c-.61.091-1.157.166-1.521.205-.07-.067-.143-.135-.219-.205-.283-.263-.677-.614-1.263-1.128a28.158,28.158,0,0,1,8.391-15.936,3.1,3.1,0,0,1,1.93,1.767A2.644,2.644,0,0,1,12.576,14.685ZM22.29,21.2a7.639,7.639,0,0,1,2.665-.375c.361-.013.7-.025,1.006-.05a3.24,3.24,0,0,1,.508,0,1.191,1.191,0,0,0,.548,1.482c.224.12.535.327.864.547a6.865,6.865,0,0,0,2.978,1.387,1.977,1.977,0,0,0,1.618-.674c.017-.017.033-.035.051-.051a1.276,1.276,0,0,0,.319-.39c.191.054.391.109.6.164a7.933,7.933,0,0,1,2.309.854,8.456,8.456,0,0,1,1.271,2.5c.179.464.348.9.538,1.307.081.174.162.353.243.535a7.44,7.44,0,0,0,2.495,3.48,4.924,4.924,0,0,0,1.982.6l.259.041a11.519,11.519,0,0,1-1.512,1.586c-1.475,1.373-3.31,3.083-2.465,5.81.4,1.288.418,1.427-.224,2.125-.087.1-.169.182-.245.263a4.9,4.9,0,0,0-1.343,2.179,1.859,1.859,0,0,1-.485.757,5.319,5.319,0,0,0-.666.883,3.861,3.861,0,0,0-.431,1.266,1.458,1.458,0,0,1-.249.7,6.945,6.945,0,0,1-1.5,1.33,1.966,1.966,0,0,1-1,.4,8.5,8.5,0,0,1-1.283-2.8c-.172-.509-.41-1.034-.64-1.541-.507-1.118-1.032-2.273-.777-3.063l.089-.273a5.2,5.2,0,0,0,.08-4.124,4.3,4.3,0,0,0-.867-1.236,2.215,2.215,0,0,1-.455-.6,2.575,2.575,0,0,1-.039-.6,2.955,2.955,0,0,0-.925-2.439,3.837,3.837,0,0,0-3.873-.6,7.473,7.473,0,0,1-.869.181,4.28,4.28,0,0,1-4.1-1.733,4.717,4.717,0,0,1-.37-4.768,9.045,9.045,0,0,1,1.542-2.094c.138-.156.278-.313.418-.474.232-.268.488-.63.758-1.014A8.612,8.612,0,0,1,22.29,21.2Z" transform="translate(0 -0.001)"/></g></g><g transform="translate(41.716 37.971)"><path class="a" d="M357.283,321.757l-.573-2.16a1.191,1.191,0,0,0-2.2-.262c-.131.241-.248.5-.362.742a5.12,5.12,0,0,1-.595,1.08,2.63,2.63,0,0,1-.7.415,3.275,3.275,0,0,0-1.984,1.928,3.49,3.49,0,0,0-.079,1.681,1.084,1.084,0,0,1-.031.7l-.012.028c-.379.89-1.085,2.546-.1,3.955a2.481,2.481,0,0,0,2.025,1.263A1.932,1.932,0,0,0,353,331.1c1.215-.2,2.129-1.463,2.875-3.978l1.4-4.723A1.191,1.191,0,0,0,357.283,321.757Zm-3.695,4.69a7.227,7.227,0,0,1-.911,2.147c-.022-.029-.047-.061-.073-.1-.228-.324.113-1.123.338-1.652l.012-.028a3.353,3.353,0,0,0,.2-1.985,1.249,1.249,0,0,1,0-.618c.047-.149.326-.293.746-.5.186-.09.392-.189.6-.309Z" transform="translate(-350.15 -318.712)"/></g><g transform="translate(30.505 14.066)"><path class="a" d="M257.71,118.155l-.08-.028a1.191,1.191,0,0,0-.789,2.248l.08.028a1.191,1.191,0,1,0,.789-2.248Z" transform="translate(-256.044 -118.059)"/></g></g></svg>