<svg xmlns="http://www.w3.org/2000/svg" width="336" height="92" fill="none"><path fill="#000" fill-rule="evenodd" d="M136.91 6.11c.07.22.11.47.11.73 0 .91-.43 2.05-1.28 3.42-1.1 1.75-2.64 3.73-4.64 5.93-2.01 2.2-4.34 4.55-7.01 7.05-2.67 2.51-5.47 5.02-8.4 7.52q-4.39 3.74-8.86 7.25c-2.96 2.33-5.67 4.39-8.13 6.18q-.9 1.61-1.39 2.71-.52 1-.66 1.61c-.02.09-.04.16-.04.21 0 .17.13.13.38-.13.41-.33 1.2-1.04 2.39-2.13 1.21-1.1 2.51-2.28 3.91-3.51 1.4-1.24 2.78-2.4 4.15-3.49 1.37-1.11 2.45-1.83 3.25-2.15.73-.35 1.43-.38 2.1-.1.66.26 1.27.67 1.8 1.24.54.56.97 1.15 1.3 1.79.34.63.57 1.15.7 1.56.02.06.03.13.03.21 0 .48-.36 1.18-1.08 2.11a130.6 130.6 0 0 1-2.71 3.34q-1.44 1.74-2.49 3.15-.66.88-.66 1.32 0 .14.06.23t.16.14c.27.06.81-.08 1.64-.44.83-.38 1.8-.88 2.91-1.52 1.1-.63 2.28-1.36 3.54-2.19 1.27-.83 2.46-1.63 3.58-2.4 1.13-.75 2.12-1.45 2.98-2.08a24.64 24.64 0 0 1 1.63-3.46c.67-1.14 1.34-2.07 2-2.81.67-.73 1.27-1.06 1.81-1 .47.13.97.32 1.49.56.54.23 1.02.49 1.46.79.44.29.79.64 1.05 1.05q.13.19.21.41.11.32.11.67 0 .15-.02.31c-.07.53-.37 1.32-.91 2.37-.52 1.02-1.05 2.07-1.58 3.15-.54 1.05-1.01 2.02-1.42 2.9-.23.52-.35.92-.35 1.19 0 .19.05.32.16.4.21.13.7.05 1.46-.25.77-.31 1.66-.75 2.69-1.34 1.04-.6 2.17-1.33 3.39-2.2q1.3-.92 2.58-1.99-.01-.02-.02-.03c-.51-.75-.77-1.57-.77-2.48 0-.15 0-.3.02-.45q.06-.67.22-1.31.25-.95.73-1.84.68-1.29 1.69-2.24v-.01l.36-.32c.83-.7 1.65-1.11 2.47-1.24.52-.07 1.08.04 1.68.32.6.26 1.15.61 1.64 1.05.5.42.92.9 1.24 1.44.34.52.51 1.01.51 1.49 0 .92-.43 1.69-1.29 2.29q-.65.45-1.2 1-.55.55-1 1.2c1.4-.2 2.72-.21 3.96-.05 1.23.16 2.33.45 3.29.85.96.41 1.73.95 2.3 1.62.57.66.85 1.43.85 2.29 0 .86-.28 1.9-.85 3.1q-.86 1.81-2.2 3.52a19.17 19.17 0 0 1-3.1 3.07c-1.17.93-2.29 1.53-3.34 1.81-1.14.26-2.25.23-3.32-.1a8.71 8.71 0 0 1-2.84-1.51 9.644 9.644 0 0 1-2.05-2.25c-.53-.83-.8-1.58-.8-2.24 0-.48.18-1.01.56-1.59.36-.6.84-1.19 1.44-1.76.6-.57 1.27-1.1 2-1.59.73-.5 1.47-.92 2.2-1.27 1.14-.53 1.81-.55 2-.04.05.11.07.23.07.36 0 .43-.25.93-.75 1.49-.21.2-.54.55-.98 1.05-.42.49-.85.99-1.29 1.49q-.64.76-1.1 1.46c-.18.28-.27.51-.27.69 0 .13.04.23.12.32.34.26.93.1 1.76-.47q1.24-.85 2.49-2.2c.83-.89 1.56-1.79 2.2-2.68.57-.83.86-1.47.86-1.94 0-.05 0-.09-.01-.14-.13-.45-.59-.66-1.39-.63-.8.03-1.7.06-2.71.1-.85.02-1.72-.02-2.61-.14-.69.82-1.49 1.67-2.4 2.55a58.315 58.315 0 0 1-3.44 3.1c-1.17.96-2.25 1.79-3.25 2.49-.99.7-1.75 1.12-2.29 1.25-.73.06-1.59-.07-2.56-.39-.96-.34-1.9-.85-2.81-1.51-.9-.67-1.62-1.49-2.17-2.45-.3-.5-.5-1.04-.61-1.6-.03.03-.06.06-.1.09a39.88 39.88 0 0 1-4.61 3.61c-1.63 1.09-3.17 1.84-4.64 2.25-1.93.46-3.59.47-4.95.05-1.37-.44-2.45-1.09-3.25-1.95-.8-.87-1.35-1.84-1.66-2.93-.14-.53-.21-1.03-.21-1.52 0-.54.09-1.06.26-1.56-1 .94-1.96 1.78-2.88 2.51-.82.74-1.62 1.44-2.42 2.1-.8.67-1.43 1.2-1.91 1.59-.45.47-1.1.86-1.95 1.17-.83.3-1.69.46-2.59.49-.89.03-1.69-.1-2.39-.39-.7-.31-1.11-.86-1.24-1.66-.02-.09-.03-.19-.03-.31 0-.9.51-2.56 1.52-4.99 1.13-2.73 2.71-5.93 4.73-9.59 2.04-3.68 4.39-7.6 7.06-11.77s5.42-8.08 8.25-11.74c2.83-3.67 5.63-6.83 8.4-9.5 2.77-2.67 5.25-4.37 7.44-5.1.67-.26 1.52-.38 2.54-.34 1.05.03 2.06.26 3.06.7q1.51.64 2.85 1.98c.91.9 1.6 2.08 2.08 3.57Zm48.29 35.08c-.07.34-.42.67-1.05.97-.64.3-1.46.59-2.47.88-.99.3-2.11.61-3.34.96-1.22.32-2.5.72-3.84 1.19-.34.73-.62 1.47-.85 2.2-.09.3-.14.59-.14.86 0 .38.09.73.29 1.04.13.35.94.26 2.44-.24 1.51-.5 3.18-1.16 5-1.95 1.84-.8 3.61-1.6 5.3-2.4.93-.44 1.68-.82 2.26-1.13.74-1.21 1.52-2.38 2.34-3.53 1.04-1.43 1.99-2.51 2.86-3.25q.05-.04.12-.08v-.01q.59-.37 1.54-.2c.7.13 1.4.42 2.1.86.7.42 1.32.93 1.88 1.53q.85.91.95 1.61c.04.09.06.2.06.31 0 .49-.36 1.21-1.06 2.19a69.45 69.45 0 0 1-2.76 3.56c-.96 1.16-1.74 2.15-2.35 2.98-.26.37-.39.63-.39.78 0 .19.21.22.61.07.52-.19 1.2-.62 2.03-1.29q1.27-1 2.71-2.35c.98-.91 1.96-1.86 2.95-2.85 1-1.01 1.93-1.91 2.81-2.71.54-.46.95-.86 1.25-1.22.29-.38.54-.6.75-.69.46-.06.99.01 1.59.22.6.2 1.17.47 1.71.81.54.33.97.74 1.29 1.24.35.49.52.97.52 1.45 0 .53-.41 1.31-1.22 2.31q-1.2 1.49-3.06 3.74c-1.22 1.5-2.65 3.26-4.29 5.3-1.63 2.03-3.27 4.35-4.93 6.96.19-.22.94-1.02 2.24-2.42 1.3-1.4 2.9-3.04 4.79-4.93 1.9-1.91 3.94-3.86 6.1-5.86 2.16-2 4.18-3.77 6.05-5.3.93-.8 1.7-.94 2.3-.44.24.19.35.43.35.71 0 .44-.28.98-.84 1.63-.28.33-1.02 1.01-2.22 2.05q-1.78 1.54-4.54 4.11c-1.82 1.69-3.92 3.67-6.3 5.95-2.36 2.27-4.81 4.72-7.35 7.38-2.99 3.2-5.46 6.35-7.4 9.44-1.93 3.11-3.53 5.93-4.78 8.45-1.27 2.54-2.29 4.66-3.05 6.35-.78 1.71-1.47 2.69-2.05 2.95-.61.28-1.37.44-2.3.47-.94.03-1.81-.08-2.61-.32q-1.2-.34-1.69-1.1c-.11-.16-.17-.36-.17-.57 0-.43.22-.95.66-1.58.46-.73 1.48-2.43 3.05-5.1 1.57-2.65 3.41-5.79 5.55-9.4 2.13-3.6 4.44-7.44 6.93-11.52q3.76-6.15 7.28-11.57c-1.34 1.27-2.64 2.4-3.91 3.41-1.27 1-2.3 1.49-3.1 1.49-.41 0-.95-.11-1.61-.34-.67-.24-1.34-.54-2.01-.9-.66-.38-1.27-.81-1.83-1.3-.57-.5-.92-1.05-1.05-1.66 0-.05-.01-.11-.01-.17 0-.47.19-1.15.55-2.05-.16.11-.33.23-.5.34a97.947 97.947 0 0 1-4.66 2.98c-1.53.93-2.79 1.63-3.78 2.1-1 .47-2 .6-3.01.37a8.94 8.94 0 0 1-2.76-1.2c-.83-.57-1.54-1.15-2.14-1.76-.59-.6-.96-1.07-1.1-1.41-.17-.23-.25-.47-.25-.74v-.14q.05-.51.15-1.03a12.19 12.19 0 0 0-2.95 2.79q-.12.15-.23.31l-.01.01q-1.07 1.51-1.6 3.41c-.47.39-1 .56-1.61.49-.6-.06-1.18-.26-1.73-.59q-.85-.51-1.39-1.24c-.38-.51-.56-.99-.56-1.47 0-.6.36-1.76 1.1-3.49q1.09-2.61 2.92-6.15c1.24-2.38 2.69-5.01 4.35-7.91 1.68-2.9 3.48-5.83 5.42-8.79 1.94-2.98 3.94-5.9 6.01-8.76 2.06-2.87 4.12-5.46 6.17-7.79q3.1-3.52 6.01-6.01c1.94-1.66 3.73-2.76 5.39-3.29.75-.26 1.62-.38 2.62-.34.99.03 2 .26 3.02.7q1.57.64 2.86 1.98c.88.9 1.55 2.08 2.03 3.57.05.19.07.4.07.62 0 .92-.43 2.1-1.29 3.53q-1.59 2.63-4.59 5.93c-2.01 2.2-4.34 4.55-7.01 7.05-2.67 2.51-5.47 5.02-8.4 7.52-2.93 2.49-5.86 4.91-8.79 7.25-2.93 2.33-5.63 4.39-8.1 6.18l-1.81 3.91c2.34-1.87 4.55-3.61 6.62-5.2 1.72-1.34 3.43-2.58 5.12-3.74 1.71-1.17 2.93-1.89 3.67-2.17.47-.07.95.04 1.44.32.5.26.96.61 1.39 1.05.44.42.77.9 1 1.44.19.42.29.8.29 1.13 0 .09-.01.18-.02.26Zm71.6 12.4c-4.06 0-7.17-.72-9.3-2.15-2.13-1.43-3.32-3.34-3.56-5.73-.03-.31-.05-.62-.05-.94 0-2.18.69-4.64 2.05-7.37 1.56-3.14 3.98-6.37 7.25-9.69 3.27-3.33 7.36-6.65 12.26-9.96 4.9-3.3 10.54-6.32 16.94-9.06 4-1.72 8.11-3.2 12.31-4.44q6.29-1.86 12.3-2.86c4-.66 7.8-1.03 11.4-1.1 3.6-.06 6.83.21 9.69.81q4.3.9 7.25 2.86c.1.26.18.55.18.82 0 .85-.78 1.59-4.37 1.13-1.7-.41-3.78-.55-6.25-.41-2.48.13-5.29.52-8.43 1.19-3.12.67-6.42 1.49-9.89 2.47-3.46.96-7.01 2.06-10.64 3.29a191.58 191.58 0 0 0-10.65 3.93c-5.66 2.28-10.73 4.81-15.2 7.57-4.46 2.77-8.23 5.54-11.31 8.3-3.06 2.77-5.39 5.41-6.98 7.91q-2.39 3.74-2.56 6.45c-.01.11-.01.22-.01.32 0 1.63.7 2.81 2.11 3.56 1.51.8 3.89.86 7.15.2q.9-1.4 2.49-4.03c1.07-1.78 2.14-3.63 3.2-5.57 1.07-1.94 2.06-3.85 2.95-5.74.91-1.9 1.56-3.49 1.95-4.76.22-.86.74-1.37 1.57-1.54q.4-.08.8-.08.84 0 1.69.38c.84.36 1.58.91 2.19 1.66.58.66.87 1.43.87 2.31 0 .09 0 .18-.01.28-.33 2.26-1.14 4.56-2.44 6.9-1.3 2.33-2.82 4.73-4.54 7.21 1.53-.47 3.06-1.16 4.59-2.05 1.53-.92 3.01-1.85 4.44-2.81 1.43-.98 2.8-1.91 4.1-2.81 1.3-.89 2.45-1.61 3.44-2.15.67-.32 1.64-.45 2.91-.39.31.02.6.04.89.08.29-.15.56-.21.81-.18.47.13.97.32 1.49.56.54.23 1.03.49 1.47.79.43.29.78.64 1.04 1.05q.13.19.21.41.11.32.11.67 0 .15-.02.31c-.07.53-.37 1.32-.91 2.37-.52 1.02-1.05 2.07-1.58 3.15-.54 1.05-1.01 2.02-1.42 2.9-.23.52-.35.92-.35 1.19 0 .19.05.32.16.4.21.13.7.05 1.46-.25.77-.31 1.66-.75 2.69-1.34 1.04-.6 2.17-1.33 3.39-2.2 1.17-.83 2.33-1.75 3.47-2.76.02-.09.03-.19.05-.29.16-1.04.42-2.04.78-3 .37-.98.84-1.83 1.41-2.57.57-.73 1.32-1.13 2.25-1.19 1.01-.13 2.06.07 3.15.61 1.11.52 1.82 1.41 2.15 2.68.05.18.08.37.08.58 0 .59-.22 1.32-.67 2.18-.6 1.16-1.17 2.34-1.71 3.54 2.87-2.54 5.01-4.72 6.45-6.54 1.43-1.84 2.45-2.82 3.05-2.95.54-.13 1.03-.04 1.49.26.47.3.87.68 1.2 1.15.34.46.59.97.75 1.54q.16.49.16.93 0 .32-.09.61c-.08.28-.52.75-1.31 1.41-.8.67-1.83 1.45-3.1 2.35-1.26.89-2.69 1.88-4.3 2.95-1.6 1.06-3.22 2.13-4.88 3.2v.1h.19c.2.26.78.31 1.74.14.97-.16 2.14-.43 3.51-.83 1.37-.4 2.8-.91 4.3-1.51s2.93-1.19 4.29-1.76c1.37-.57 2.55-1.1 3.55-1.58 1-.51 1.67-.86 2-1.05.4-.35.84-.55 1.29-.61.47-.07.86-.04 1.15.09.31.13.46.4.46.81 0 .39-.23.89-.71 1.49-.52.67-1.55 1.6-3.1 2.81-1.53 1.2-3.23 2.41-5.1 3.61a54.119 54.119 0 0 1-5.59 3.15c-1.86.89-3.32 1.34-4.39 1.34-.93 0-2.05-.38-3.35-1.15-1.3-.76-2.52-1.75-3.66-2.95l-8.99 5.69c-.73.41-1.33.53-1.8.36-.47-.17-.81-.48-1-.9-.15-.33-.22-.67-.22-1.03 0-.12.01-.24.02-.36.07-.5.26-.83.59-.98 1.8-.79 3.47-1.62 5-2.49a48.55 48.55 0 0 0 4.3-2.71c-.54-.79-.97-1.62-1.29-2.49-.05-.1-.08-.21-.12-.32-.16.16-.33.33-.5.49a58.315 58.315 0 0 1-3.44 3.1c-1.17.96-2.25 1.79-3.25 2.49-.99.7-1.75 1.12-2.29 1.25-.73.06-1.59-.07-2.56-.39-.96-.34-1.9-.85-2.81-1.51-.9-.67-1.62-1.49-2.17-2.45-.47-.79-.7-1.66-.7-2.59 0-.21.01-.43.04-.65.03-.3.08-.59.13-.9-1.01.43-2.05.83-3.1 1.19-2.3.8-4.64 1.47-7.04 2-2.39.52-4.69.92-6.9 1.2-.93 1.4-2.03 3.16-3.3 5.3-1.27 2.13-2.56 4.26-3.86 6.39-1.28 2.14-2.5 4.08-3.64 5.84-1.14 1.77-2 2.96-2.58 3.56a19.273 19.273 0 0 1-4.01 2.96c-1.4.76-2.67 1.31-3.81 1.63-1.14.34-2.01.45-2.61.32-.38-.08-.56-.25-.56-.5 0-.14.05-.31.17-.5.6-.94 1.57-2.5 2.91-4.66 1.33-2.17 2.71-4.48 4.15-6.94 1.43-2.47 2.8-4.82 4.1-7.05 1.3-2.23 2.25-3.89 2.85-4.96ZM68.28 51.2c1.87-1.87 3.97-4.14 6.3-6.79 2.35-2.67 4.75-5.55 7.2-8.64 2.48-3.11 4.94-6.3 7.4-9.57 2.48-3.27 4.83-6.41 7.06-9.4 2.24-3 4.26-5.78 6.05-8.35Q105 4.59 106.69 2q.24-.35.57-.56.24-.16.53-.24.7-.2 1.24 0c.37.13.64.36.81.71.08.15.12.3.12.47 0 .2-.06.4-.17.62-2.07 3.93-4.34 8.14-6.81 12.65-2.46 4.49-5.11 9.04-7.94 13.65q-4.25 6.88-9.01 13.55c-3.16 4.43-6.53 8.56-10.13 12.4-3.6 3.83-7.41 7.23-11.45 10.21-4.04 2.96-8.25 5.24-12.65 6.83-2 .73-4.14 1.15-6.42 1.25-2.26.09-4.36-.19-6.3-.86-1.92-.65-3.54-1.71-4.88-3.2-1.33-1.46-2.14-3.42-2.42-5.88-1.85 1.6-4.06 3.13-6.64 4.59-2.57 1.47-5.21 2.5-7.91 3.1-2.68.6-5.33.59-7.93-.05-2.61-.63-4.84-2.25-6.72-4.86C1.12 64.32.26 61.91 0 59.16c-.07-.73-.11-1.47-.11-2.22 0-2.12.27-4.35.81-6.69.74-3.18 1.85-6.41 3.35-9.7 1.5-3.3 3.3-6.53 5.4-9.69 2.09-3.17 4.37-6.16 6.83-8.96 2.48-2.8 5.03-5.23 7.67-7.3 2.63-2.07 5.26-3.7 7.88-4.91 2.64-1.2 5.16-1.77 7.57-1.7.26 0 .68.1 1.25.31.57.2 1.1.45 1.58.76.51.29.89.58 1.15.85.14.14.21.26.21.35 0 .1-.06.18-.18.24a40.476 40.476 0 0 0-12.53 8.76c-3.6 3.7-6.99 7.54-10.18 11.53-.86 1.07-2.12 2.78-3.76 5.12q-2.44 3.5-4.91 7.7c-1.62 2.79-3.12 5.66-4.49 8.59-1.37 2.93-2.24 5.55-2.61 7.86-.1.61-.14 1.18-.14 1.72 0 1.5.36 2.74 1.09 3.72q.07.1.15.18 1.57 1.8 5.86 1.22 4.54-.6 8.52-2.42 1.38-.62 2.68-1.39c3.4-2 6.6-4.33 9.6-6.98 1.33-4.61 3.33-9.11 6-13.51 2.67-4.41 5.5-8.54 8.5-12.4 1.07-1.4 2.38-3.02 3.91-4.86 1.53-1.84 3.2-3.55 5.02-5.15q2.76-2.39 5.72-3.88c1.97-1.01 3.92-1.38 5.86-1.12 1.93.26 2.89 1.07 2.89 2.45 0 .1 0 .2-.01.31-.13 1.56-.98 3.51-2.54 5.86-1.56 2.32-3.63 4.92-6.2 7.78-2.56 2.87-5.22 5.76-7.99 8.67-2.76 2.9-5.45 5.7-8.05 8.4-2.61 2.68-4.67 5-6.2 6.93-.41.87-.83 1.87-1.27 3.01-.43 1.14-.79 2.29-1.1 3.46-.29 1.16-.46 2.32-.49 3.49v.23q0 1.38.49 2.56.08.18.17.36c.54 1.34 1.62 1.87 3.25 1.59 1.62-.26 3.52-.98 5.68-2.15 2.19-1.17 4.47-2.64 6.87-4.39 2.39-1.78 4.63-3.53 6.73-5.25 2.1-1.74 3.92-3.3 5.45-4.67 1.54-1.36 2.51-2.24 2.9-2.63ZM133 3.79c-.28-.33-.89-.09-1.86.7-.96.8-2.16 1.96-3.61 3.47-1.43 1.5-3.03 3.26-4.81 5.3-1.76 2.02-3.53 4.13-5.32 6.35-4.2 5.12-8.94 11.02-14.21 17.7q1.2-1 4.1-3.67c1.94-1.77 4.07-3.8 6.4-6.1 2.34-2.29 4.74-4.73 7.2-7.3 2.48-2.57 4.66-4.99 6.54-7.25 1.91-2.26 3.41-4.22 4.5-5.88.81-1.24 1.22-2.17 1.22-2.79 0-.21-.05-.39-.15-.53Zm68.9 0c-.26-.33-.9-.09-1.91.7-.99.8-2.23 1.96-3.71 3.47-1.46 1.5-3.08 3.26-4.86 5.3-1.76 2.02-3.53 4.13-5.32 6.35-4.2 5.12-8.94 11.02-14.21 17.7.86-.67 2.25-1.89 4.15-3.67 1.91-1.77 4.02-3.8 6.35-6.1 2.34-2.29 4.74-4.73 7.2-7.3q3.71-3.86 6.59-7.25c1.94-2.26 3.45-4.22 4.54-5.88.86-1.3 1.29-2.25 1.29-2.87 0-.18-.04-.33-.11-.45ZM50.29 39.41c1.68-1.4 3.34-2.99 5-4.76 1.67-1.78 3.18-3.48 4.55-5.11 1.36-1.62 2.53-3.04 3.49-4.25.97-1.2 1.6-1.93 1.88-2.19-1.27.86-2.59 1.94-3.96 3.24a73.827 73.827 0 0 0-4.05 4.2c-1.34 1.5-2.61 3.02-3.81 4.57-1.2 1.53-2.24 2.96-3.1 4.3Zm87.29-5.72c-.39 0-.88-.09-1.49-.29-.6-.21-1.15-.48-1.66-.81-.48-.32-.88-.7-1.19-1.14-.24-.36-.36-.73-.36-1.1 0-.08 0-.16.02-.25.06-.4.24-.94.53-1.61.31-.66.66-1.32 1.05-1.95.41-.63.87-1.18 1.37-1.64.5-.47.99-.77 1.44-.9.47-.06 1.04.02 1.71.25.67.22 1.3.56 1.9 1 .61.44 1.09.91 1.44 1.41q.47.6.47 1.06 0 .1-.03.19c0 .39-.2.9-.61 1.54-.39.63-.85 1.25-1.39 1.85q-.78.9-1.68 1.61c-.6.46-1.11.72-1.52.78Zm160.4 1c-.39 0-.88-.09-1.49-.29-.6-.21-1.15-.48-1.66-.81-.48-.32-.88-.7-1.19-1.14-.24-.36-.36-.73-.36-1.1 0-.08 0-.16.02-.25.06-.4.24-.94.53-1.61.31-.66.66-1.32 1.05-1.95.41-.63.87-1.18 1.37-1.64.51-.47.99-.77 1.44-.9.47-.06 1.04.02 1.71.25.67.22 1.3.56 1.9 1 .61.44 1.09.91 1.44 1.41q.47.6.47 1.06 0 .1-.03.19c0 .39-.2.9-.61 1.54-.39.63-.85 1.25-1.39 1.85q-.78.9-1.68 1.61c-.6.46-1.11.72-1.52.78Z"/></svg>